<?xml version="1.0" encoding="UTF-8"?>
<!DOCTYPE svg  PUBLIC '-//W3C//DTD SVG 1.1//EN'  'http://www.w3.org/Graphics/SVG/1.1/DTD/svg11.dtd'>
<svg clip-rule="evenodd" fill-rule="evenodd" stroke-linejoin="round" stroke-miterlimit="2" version="1.1" viewBox="0 0 512 512" xml:space="preserve" xmlns="http://www.w3.org/2000/svg"><path d="m255.02 512 0.229 1e-3h-0.079l-0.15-1e-3zm1.806 1e-3h-0.079l0.229-1e-3 -0.15 1e-3zm-2.588-5e-3 0.247 1e-3h-0.142l-0.105-1e-3zm3.415 1e-3h-0.142l0.247-1e-3 -0.105 1e-3zm-4.169-7e-3 0.165 1e-3 -0.132-1e-3h-0.033zm4.995 0-0.132 1e-3 0.165-1e-3h-0.033zm0.826-9e-3 -0.058 1e-3 0.223-3e-3 -0.165 2e-3zm-6.779-2e-3 0.223 3e-3 -0.058-1e-3 -0.165-2e-3zm7.604-0.01-0.135 2e-3 0.275-4e-3 -0.14 2e-3zm-8.404-2e-3 0.275 4e-3 -0.135-2e-3 -0.14-2e-3zm9.228-0.012-0.182 3e-3 0.254-5e-3 -0.072 2e-3zm-9.984-2e-3 0.254 5e-3 -0.182-3e-3 -0.072-2e-3zm-0.937-0.019 0.225 5e-3 -0.04-1e-3 -0.185-4e-3zm11.745 4e-3 -0.04 1e-3 0.225-5e-3 -0.185 4e-3zm-12.567-0.025 0.309 8e-3 -0.125-3e-3 -0.184-5e-3zm13.39 5e-3 -0.125 3e-3 0.309-8e-3 -0.184 5e-3zm0.823-0.022-0.201 6e-3 0.316-9e-3 -0.115 3e-3zm-14.967-3e-3 0.316 9e-3 -0.201-6e-3 -0.115-3e-3zm-0.72-0.022 0.225 7e-3 -0.212-7e-3 -0.194-6e-3 0.181 6e-3zm16.509 0-0.212 7e-3 0.225-7e-3 0.181-6e-3 -0.194 6e-3zm0.821-0.027-0.112 4e-3 0.345-0.012-0.233 8e-3zm-18.371-8e-3 0.345 0.012-0.112-4e-3 -0.233-8e-3zm-0.749-0.028 0.362 0.013-0.201-7e-3 -0.161-6e-3zm19.941 6e-3 -0.201 7e-3 0.362-0.013-0.161 6e-3zm-20.676-0.036 0.354 0.015-0.277-0.011-0.077-4e-3zm21.495 4e-3 -0.277 0.011 0.354-0.015-0.077 4e-3zm-22.525-0.049 0.38 0.017-0.093-3e-3 -0.287-0.014zm23.345 0.014-0.093 3e-3 0.38-0.017-0.287 0.014zm-24.084-0.048 0.394 0.018-0.186-8e-3 -0.208-0.01zm24.902 0.01-0.186 8e-3 0.394-0.018-0.208 0.01zm-25.63-0.047 0.397 0.02-0.279-0.013-0.118-7e-3zm26.448 7e-3 -0.279 0.013 0.397-0.02-0.118 7e-3zm0.818-0.043-0.362 0.019 0.321-0.017 0.378-0.021-0.337 0.019zm-27.925 2e-3 0.321 0.017-0.362-0.019-0.337-0.019 0.378 0.021zm28.741-0.048-0.16 9e-3 0.406-0.023-0.246 0.014zm-29.844-0.014 0.406 0.023-0.16-9e-3 -0.246-0.014zm-0.722-0.043 0.405 0.024-0.253-0.014-0.152-0.01zm31.382 0.01-0.253 0.014 0.405-0.024-0.152 0.01zm-32.071-0.053 0.365 0.023-0.34-0.021-0.342-0.022 0.317 0.02zm32.887 2e-3 -0.34 0.021 0.365-0.023 0.317-0.02-0.342 0.022zm0.814-0.053-0.122 8e-3 0.387-0.026-0.265 0.018zm-34.755-0.018 0.387 0.026-0.122-8e-3 -0.265-0.018zm-0.721-0.05 0.38 0.027-0.208-0.014-0.172-0.013zm36.29 0.013-0.208 0.014 0.38-0.027-0.172 0.013zm-37.009-0.064 0.349 0.025-0.271-0.019-0.078-6e-3zm37.822 6e-3 -0.271 0.019 0.349-0.025-0.078 6e-3zm-38.789-0.079 0.306 0.023-0.074-5e-3 -0.232-0.018zm39.602 0.018-0.074 5e-3 0.306-0.023-0.232 0.018zm0.811-0.063-0.146 0.011 0.311-0.025-0.165 0.014zm-41.157-0.014 0.311 0.025-0.146-0.011-0.165-0.014zm-0.725-0.059 0.264 0.022-0.186-0.015-0.078-7e-3zm42.694 7e-3 -0.186 0.015 0.264-0.022-0.078 7e-3zm-43.492-0.074 0.079 7e-3 -0.013-1e-3 -0.066-6e-3zm44.302 6e-3 -0.013 1e-3 0.079-7e-3 -0.066 6e-3zm0.81-0.071-0.072 6e-3 0.181-0.016-0.109 0.01zm-45.965-0.01 0.181 0.016-0.072-6e-3 -0.109-0.01zm-0.75-0.068 0.135 0.013-0.084-8e-3 -0.051-5e-3zm47.523 5e-3 -0.084 8e-3 0.135-0.013-0.051 5e-3zm-63.736-2.025c-122.32-19.226-216-125.2-216-252.89 0-141.29 114.71-256 256-256s256 114.71 256 256c0 127.68-93.681 233.66-216 252.89v-178.89h59.65l11.35-74h-71v-48.021c0-20.245 9.918-39.979 41.719-39.979h32.281v-63s-29.296-5-57.305-5c-58.476 0-96.695 35.44-96.695 99.6v56.4h-65v74h65v178.89z"/></svg>
