<?xml version="1.0" encoding="UTF-8" standalone="no"?>
<!DOCTYPE svg PUBLIC "-//W3C//DTD SVG 1.1//EN" "http://www.w3.org/Graphics/SVG/1.1/DTD/svg11.dtd">
<svg width="100%" height="100%" viewBox="0 0 1280 294" version="1.1" xmlns="http://www.w3.org/2000/svg" xmlns:xlink="http://www.w3.org/1999/xlink" xml:space="preserve" xmlns:serif="http://www.serif.com/" style="fill-rule:evenodd;clip-rule:evenodd;stroke-linejoin:round;stroke-miterlimit:2;">
    <g transform="matrix(1,0,0,1,-1511,0)">
        <g id="full-lockup-black" transform="matrix(1,0,0,1,383.654,658.273)">
            <rect x="1127.35" y="-658.273" width="1280" height="293.273" style="fill:none;"/>
            <clipPath id="_clip1">
                <rect x="1127.35" y="-658.273" width="1280" height="293.273"/>
            </clipPath>
            <g clip-path="url(#_clip1)">
                <g id="full-lockup" transform="matrix(1.47885,0,0,1.47885,820.239,-1827.82)">
                    <g id="text" transform="matrix(3.98787,0,0,3.98787,-1116.31,-778.565)">
                        <g transform="matrix(50,0,0,50,352.381,436.035)">
                            <path d="M0.418,0.006C0.349,0.006 0.286,-0.009 0.231,-0.04C0.175,-0.071 0.131,-0.113 0.1,-0.168C0.068,-0.222 0.052,-0.283 0.052,-0.35C0.052,-0.417 0.068,-0.478 0.1,-0.533C0.131,-0.587 0.175,-0.629 0.231,-0.66C0.287,-0.691 0.35,-0.706 0.419,-0.706C0.471,-0.706 0.519,-0.697 0.563,-0.68C0.607,-0.663 0.644,-0.637 0.675,-0.604L0.628,-0.557C0.573,-0.612 0.504,-0.64 0.421,-0.64C0.366,-0.64 0.315,-0.627 0.27,-0.602C0.225,-0.577 0.189,-0.542 0.164,-0.498C0.138,-0.454 0.125,-0.405 0.125,-0.35C0.125,-0.295 0.138,-0.246 0.164,-0.202C0.189,-0.158 0.225,-0.123 0.27,-0.098C0.315,-0.073 0.366,-0.06 0.421,-0.06C0.505,-0.06 0.574,-0.088 0.628,-0.144L0.675,-0.097C0.644,-0.064 0.607,-0.038 0.563,-0.021C0.518,-0.003 0.47,0.006 0.418,0.006Z" style="fill-rule:nonzero;"/>
                        </g>
                        <g transform="matrix(50,0,0,50,387.431,436.035)">
                            <path d="M0.553,-0.187L0.163,-0.187L0.079,-0L0.002,-0L0.322,-0.7L0.395,-0.7L0.715,-0L0.637,-0L0.553,-0.187ZM0.526,-0.247L0.358,-0.623L0.19,-0.247L0.526,-0.247Z" style="fill-rule:nonzero;"/>
                        </g>
                        <g transform="matrix(50,0,0,50,423.281,436.035)">
                            <path d="M0.609,-0.064L0.609,-0L0.114,-0L0.114,-0.7L0.594,-0.7L0.594,-0.636L0.188,-0.636L0.188,-0.387L0.55,-0.387L0.55,-0.324L0.188,-0.324L0.188,-0.064L0.609,-0.064Z" style="fill-rule:nonzero;"/>
                        </g>
                        <g transform="matrix(50,0,0,50,456.731,436.035)">
                            <path d="M0.307,0.006C0.255,0.006 0.205,-0.002 0.158,-0.019C0.11,-0.036 0.073,-0.058 0.047,-0.085L0.076,-0.142C0.101,-0.117 0.135,-0.096 0.177,-0.081C0.219,-0.065 0.262,-0.057 0.307,-0.057C0.37,-0.057 0.417,-0.069 0.448,-0.092C0.479,-0.115 0.495,-0.144 0.495,-0.181C0.495,-0.209 0.487,-0.231 0.47,-0.248C0.452,-0.265 0.432,-0.278 0.407,-0.287C0.382,-0.296 0.348,-0.305 0.304,-0.316C0.251,-0.329 0.209,-0.342 0.178,-0.355C0.147,-0.367 0.12,-0.386 0.098,-0.411C0.075,-0.436 0.064,-0.471 0.064,-0.514C0.064,-0.549 0.073,-0.582 0.092,-0.611C0.111,-0.64 0.139,-0.663 0.178,-0.68C0.217,-0.697 0.265,-0.706 0.322,-0.706C0.362,-0.706 0.401,-0.7 0.44,-0.69C0.478,-0.679 0.511,-0.663 0.539,-0.644L0.514,-0.585C0.485,-0.604 0.453,-0.619 0.42,-0.629C0.387,-0.638 0.354,-0.643 0.322,-0.643C0.261,-0.643 0.215,-0.631 0.184,-0.608C0.153,-0.584 0.137,-0.553 0.137,-0.516C0.137,-0.488 0.146,-0.466 0.163,-0.449C0.18,-0.432 0.201,-0.419 0.227,-0.41C0.252,-0.401 0.287,-0.391 0.33,-0.38C0.381,-0.367 0.423,-0.355 0.455,-0.343C0.486,-0.33 0.513,-0.312 0.535,-0.287C0.557,-0.262 0.568,-0.228 0.568,-0.185C0.568,-0.15 0.559,-0.118 0.54,-0.089C0.521,-0.059 0.491,-0.037 0.452,-0.02C0.413,-0.003 0.364,0.006 0.307,0.006Z" style="fill-rule:nonzero;"/>
                        </g>
                        <g transform="matrix(50,0,0,50,487.481,436.035)">
                            <path d="M0.114,-0.7L0.399,-0.7C0.473,-0.7 0.538,-0.685 0.595,-0.656C0.652,-0.626 0.696,-0.584 0.727,-0.532C0.758,-0.478 0.774,-0.418 0.774,-0.35C0.774,-0.282 0.758,-0.222 0.727,-0.169C0.696,-0.116 0.652,-0.074 0.595,-0.045C0.538,-0.015 0.473,-0 0.399,-0L0.114,-0L0.114,-0.7ZM0.395,-0.064C0.456,-0.064 0.51,-0.076 0.556,-0.101C0.602,-0.125 0.638,-0.159 0.663,-0.202C0.688,-0.245 0.701,-0.294 0.701,-0.35C0.701,-0.406 0.688,-0.456 0.663,-0.499C0.638,-0.542 0.602,-0.575 0.556,-0.6C0.51,-0.624 0.456,-0.636 0.395,-0.636L0.188,-0.636L0.188,-0.064L0.395,-0.064Z" style="fill-rule:nonzero;"/>
                        </g>
                    </g>
                    <g id="text-border" transform="matrix(1,0,0,1,0.670995,250.498)">
                        <path d="M1072.77,596.672C1072.77,565.86 1047.75,540.844 1016.94,540.844C1016.94,540.844 263.058,540.844 263.058,540.844C232.246,540.844 207.23,565.86 207.23,596.672L207.23,683.328C207.23,714.14 232.246,739.156 263.058,739.156C263.058,739.156 1016.94,739.156 1016.94,739.156C1047.75,739.156 1072.77,714.14 1072.77,683.328L1072.77,596.672ZM1017.22,726.655C1041.01,726.505 1060.27,707.148 1060.27,683.328L1060.27,596.672C1060.27,572.759 1040.86,553.344 1016.94,553.344L263.058,553.344C239.145,553.344 219.73,572.759 219.73,596.672L219.73,683.328C219.73,707.241 239.145,726.656 263.058,726.656L1016.94,726.656L1017.22,726.655Z"/>
                    </g>
                </g>
            </g>
        </g>
    </g>
</svg>
