<svg clip-rule="evenodd" fill-rule="evenodd" stroke-linejoin="round" stroke-miterlimit="2" viewBox="0 0 1280 576" xmlns="http://www.w3.org/2000/svg" xmlns:xlink="http://www.w3.org/1999/xlink"><clipPath id="a"><path clip-rule="evenodd" d="m-1350.8 54.05h1280v575.24h-1280z"/></clipPath><g transform="translate(1350.8 -54.05)"><path d="m-1350.8 54.05h1280v575.24h-1280z" fill="none"/><g clip-path="url(#a)"><g transform="matrix(1.4788 0 0 1.4788 -1657 -463.76)"><g fill-rule="nonzero"><path d="m.418.006c-.069 0-.132-.015-.187-.046-.056-.031-.1-.073-.131-.128-.032-.054-.048-.115-.048-.182s.016-.128.048-.183c.031-.054.075-.096.131-.127s.119-.046.188-.046c.052 0 .1.009.144.026s.081.043.112.076l-.047.047c-.055-.055-.124-.083-.207-.083-.055 0-.106.013-.151.038s-.081.06-.106.104c-.026.044-.039.093-.039.148s.013.104.039.148c.025.044.061.079.106.104s.096.038.151.038c.084 0 .153-.028.207-.084l.047.047c-.031.033-.068.059-.112.076-.045.018-.093.027-.145.027z" transform="matrix(199.395 0 0 199.395 288.256202 709.783916)"/><path d="m.553-.187h-.39l-.084.187h-.077l.32-.7h.073l.32.7h-.078zm-.027-.06-.168-.376-.168.376z" transform="matrix(199.395 0 0 199.395 428.032097 709.783916)"/><path d="m.609-.064v.064h-.495v-.7h.48v.064h-.406v.249h.362v.063h-.362v.26h.421z" transform="matrix(199.395 0 0 199.395 570.998312 709.783916)"/><path d="m.307.006c-.052 0-.102-.008-.149-.025-.048-.017-.085-.039-.111-.066l.029-.057c.025.025.059.046.101.061.042.016.085.024.13.024.063 0 .11-.012.141-.035s.047-.052.047-.089c0-.028-.008-.05-.025-.067-.018-.017-.038-.03-.063-.039s-.059-.018-.103-.029c-.053-.013-.095-.026-.126-.039-.031-.012-.058-.031-.08-.056-.023-.025-.034-.06-.034-.103 0-.035.009-.068.028-.097s.047-.052.086-.069.087-.026.144-.026c.04 0 .079.006.118.016.038.011.071.027.099.046l-.025.059c-.029-.019-.061-.034-.094-.044-.033-.009-.066-.014-.098-.014-.061 0-.107.012-.138.035-.031.024-.047.055-.047.092 0 .028.009.05.026.067s.038.03.064.039c.025.009.06.019.103.03.051.013.093.025.125.037.031.013.058.031.08.056s.033.059.033.102c0 .035-.009.067-.028.096-.019.03-.049.052-.088.069s-.088.026-.145.026z" transform="matrix(199.395 0 0 199.395 704.393567 709.783916)"/><path d="m.114-.7h.285c.074 0 .139.015.196.044.057.03.101.072.132.124.031.054.047.114.047.182s-.016.128-.047.181-.075.095-.132.124c-.057.03-.122.045-.196.045h-.285zm.281.636c.061 0 .115-.012.161-.037.046-.024.082-.058.107-.101s.038-.092.038-.148-.013-.106-.038-.149-.061-.076-.107-.101c-.046-.024-.1-.036-.161-.036h-.207v.572h.207z" transform="matrix(199.395 0 0 199.395 827.021492 709.783916)"/></g><path d="m809.29 502.56h-332.4c5.232 8.902 14.911 14.885 25.976 14.885h280.45c11.065 0 20.745-5.983 25.976-14.885zm4.132-15.224v-9.776h-340.66v9.776c0 .917.041 1.825.122 2.724h340.42c.081-.899.122-1.807.122-2.724zm0-72.276v-12.5h-5.693v3.878c0 3.039-.568 5.946-1.606 8.622zm-.122-37.5h-5.654c.055.66.083 1.328.083 2.003v10.497h5.693v-9.777c0-.917-.041-1.825-.122-2.723zm-336.41-12.5h253.59c4.368-5.705 11.246-9.385 18.978-9.385h34.385c7.731 0 14.609 3.68 18.977 9.385h6.472c-5.231-8.903-14.911-14.885-25.976-14.885h-280.45c-11.065 0-20.744 5.982-25.976 14.885zm336.53 87.5h-340.66v12.5h340.66zm-340.66-25v12.5h340.66v-12.5h-18.419c-3.333 1.766-7.132 2.767-11.162 2.767h-34.385c-4.031 0-7.83-1.001-11.163-2.767h-265.54zm0-25v12.5h254.42c-1.037-2.676-1.606-5.583-1.606-8.622v-3.878h-252.81zm0-22.277v9.777h252.81v-10.497c0-.675.028-1.343.083-2.003h-252.77c-.081.898-.122 1.806-.122 2.723z"/><path d="m1072.8 596.67c0-30.812-25.02-55.828-55.83-55.828h-753.88c-30.812 0-55.828 25.016-55.828 55.828v86.656c0 30.812 25.016 55.828 55.828 55.828h753.88c30.81 0 55.83-25.016 55.83-55.828zm-55.55 129.98c23.79-.15 43.05-19.507 43.05-43.327v-86.656c0-23.913-19.41-43.328-43.33-43.328h-753.88c-23.913 0-43.328 19.415-43.328 43.328v86.656c0 23.913 19.415 43.328 43.328 43.328h753.88z"/></g></g></g></svg>